<svg width="60" height="12" viewBox="0 0 60 12" fill="none" xmlns="http://www.w3.org/2000/svg">
<path d="M6 1L7.545 4.13L11 4.635L8.5 7.07L9.09 10.51L6 8.885L2.91 10.51L3.5 7.07L1 4.635L4.455 4.13L6 1Z" fill="#FAC031"/>
<path d="M18 1L19.545 4.13L23 4.635L20.5 7.07L21.09 10.51L18 8.885L14.91 10.51L15.5 7.07L13 4.635L16.455 4.13L18 1Z" fill="#FAC031"/>
<path d="M30 1L31.545 4.13L35 4.635L32.5 7.07L33.09 10.51L30 8.885L26.91 10.51L27.5 7.07L25 4.635L28.455 4.13L30 1Z" fill="#FAC031"/>
<path d="M42 1L43.545 4.13L47 4.635L44.5 7.07L45.09 10.51L42 8.885L38.91 10.51L39.5 7.07L37 4.635L40.455 4.13L42 1Z" fill="#FAC031"/>
<path d="M54 1L55.545 4.13L59 4.635L56.5 7.07L57.09 10.51L54 8.885L50.91 10.51L51.5 7.07L49 4.635L52.455 4.13L54 1Z" stroke="#FAC031" stroke-width="0.5" stroke-linecap="round" stroke-linejoin="round"/>
<path d="M54 1.5V9" stroke="#FAC031" stroke-width="0.5"/>
<path d="M53.5 9V2.5V2M53 3V9.5M52.5 4V9.5M52 4V10M51.5 4.5V7V10M51 4.5V6.5M50.5 4.5V6M50 4.5V5.5M49.5 4.5V5" stroke="#FAC031" stroke-width="0.5"/>
</svg>
