<svg width="28" height="28" viewBox="0 0 28 28" fill="none" xmlns="http://www.w3.org/2000/svg">
<path d="M27 15.1712C26.7723 17.6351 25.8476 19.9833 24.334 21.9409C22.8205 23.8985 20.7807 25.3845 18.4534 26.2252C16.1261 27.0658 13.6076 27.2263 11.1924 26.6877C8.77726 26.1492 6.56542 24.934 4.81571 23.1843C3.066 21.4346 1.85078 19.2227 1.31226 16.8076C0.77374 14.3924 0.934184 11.8739 1.77482 9.54656C2.61545 7.21926 4.10151 5.17951 6.05911 3.66597C8.0167 2.15242 10.3649 1.2277 12.8288 1C11.3863 2.95164 10.6921 5.35622 10.8726 7.77642C11.053 10.1966 12.0962 12.4716 13.8123 14.1877C15.5284 15.9038 17.8034 16.947 20.2236 17.1274C22.6438 17.3079 25.0484 16.6137 27 15.1712Z" stroke="#FAC031" stroke-width="2" stroke-linecap="round" stroke-linejoin="round"/>
</svg>
