<svg width="95" height="16" viewBox="0 0 95 16" fill="none" xmlns="http://www.w3.org/2000/svg">
<g clip-path="url(#clip0_9_1131)">
<path d="M15.007 2.0067C14.3955 2.45702 13.7184 2.80144 13.0018 3.0267C12.6172 2.56504 12.1061 2.23783 11.5375 2.08932C10.969 1.94081 10.3705 1.97817 9.82294 2.19634C9.2754 2.41451 8.80525 2.80297 8.47608 3.30918C8.14691 3.81539 7.9746 4.41493 7.98245 5.0267V5.69337C6.86021 5.72375 5.74818 5.46391 4.74541 4.937C3.74265 4.41009 2.88027 3.63246 2.23509 2.67337C2.23509 2.67337 -0.3193 8.67337 5.42807 11.34C4.1129 12.272 2.54618 12.7393 0.957893 12.6734C6.70526 16.0067 13.7298 12.6734 13.7298 5.0067C13.7292 4.82101 13.7121 4.63577 13.6787 4.45337C14.3305 3.78237 14.7904 2.93518 15.007 2.0067Z" stroke="black" stroke-linecap="round" stroke-linejoin="round"/>
</g>
<path d="M37.6772 1.33325H31.2912C29.5278 1.33325 28.0982 2.82564 28.0982 4.66658V11.3333C28.0982 13.1742 29.5278 14.6666 31.2912 14.6666H37.6772C39.4406 14.6666 40.8702 13.1742 40.8702 11.3333V4.66658C40.8702 2.82564 39.4406 1.33325 37.6772 1.33325Z" stroke="black" stroke-linecap="round" stroke-linejoin="round"/>
<path d="M37.0386 7.57996C37.1174 8.13479 37.0266 8.70143 36.7792 9.1993C36.5317 9.69717 36.1402 10.1009 35.6603 10.3531C35.1803 10.6052 34.6365 10.693 34.106 10.6039C33.5756 10.5148 33.0855 10.2533 32.7056 9.85673C32.3257 9.46012 32.0753 8.94854 31.9899 8.39477C31.9045 7.84099 31.9886 7.27322 32.2302 6.77221C32.4717 6.27119 32.8585 5.86245 33.3354 5.60412C33.8123 5.34579 34.3551 5.25102 34.8865 5.33329C35.4286 5.41721 35.9305 5.68093 36.3181 6.08549C36.7056 6.49006 36.9582 7.01401 37.0386 7.57996Z" stroke="black" stroke-linecap="round" stroke-linejoin="round"/>
<path d="M37.9965 4.33325H38.0032" stroke="black" stroke-linecap="round" stroke-linejoin="round"/>
<path d="M65.1368 1.33325H63.2211C62.3742 1.33325 61.5621 1.68444 60.9633 2.30956C60.3645 2.93468 60.0281 3.78253 60.0281 4.66659V6.66658H58.1123V9.33325H60.0281V14.6666H62.5825V9.33325H64.4982L65.1368 6.66658H62.5825V4.66659C62.5825 4.48977 62.6497 4.3202 62.7695 4.19518C62.8893 4.07016 63.0517 3.99992 63.2211 3.99992H65.1368V1.33325Z" stroke="black" stroke-linecap="round" stroke-linejoin="round"/>
<path d="M89.6667 5.33325C90.7275 5.33325 91.7449 5.75468 92.4951 6.50482C93.2452 7.25497 93.6667 8.27239 93.6667 9.33325V13.9999H91V9.33325C91 8.97963 90.8595 8.64049 90.6095 8.39044C90.3594 8.14039 90.0203 7.99992 89.6667 7.99992C89.313 7.99992 88.9739 8.14039 88.7239 8.39044C88.4738 8.64049 88.3333 8.97963 88.3333 9.33325V13.9999H85.6667V9.33325C85.6667 8.27239 86.0881 7.25497 86.8382 6.50482C87.5884 5.75468 88.6058 5.33325 89.6667 5.33325Z" stroke="black" stroke-linecap="round" stroke-linejoin="round"/>
<path d="M83 6H80.3333V14H83V6Z" stroke="black" stroke-linecap="round" stroke-linejoin="round"/>
<path d="M81.6667 3.99992C82.403 3.99992 83 3.40297 83 2.66659C83 1.93021 82.403 1.33325 81.6667 1.33325C80.9303 1.33325 80.3333 1.93021 80.3333 2.66659C80.3333 3.40297 80.9303 3.99992 81.6667 3.99992Z" stroke="black" stroke-linecap="round" stroke-linejoin="round"/>
<defs>
<clipPath id="clip0_9_1131">
<rect width="15.3263" height="16" fill="white"/>
</clipPath>
</defs>
</svg>
